HIERARCHY
ROOT Hips
{
	OFFSET 0.000000 83.214638 0.000000
	CHANNELS 6 Xposition Yposition Zposition Xrotation Yrotation Zrotation
	JOINT Pelvis
	{
		OFFSET 0.000000 0.000000 0.000000
		CHANNELS 3 Xrotation Yrotation Zrotation
		JOINT LeftUpLeg
		{
			OFFSET 8.479700 -4.795502 -0.379100
			CHANNELS 3 Xrotation Yrotation Zrotation
			JOINT LeftLeg
			{
				OFFSET 0.024144 -32.555107 0.112900
				CHANNELS 3 Xrotation Yrotation Zrotation
				JOINT LeftFoot
				{
					OFFSET -0.024144 -32.638630 -3.012600
					CHANNELS 3 Xrotation Yrotation Zrotation
					JOINT LeftToeBase
					{
						OFFSET 0.970200 -13.225400 11.864200
						CHANNELS 3 Xrotation Yrotation Zrotation
						End Site
						{
							OFFSET 0.000000 12.319262 0.000000
						}
					}
					JOINT LFootTongue
					{
						OFFSET 1.142400 -1.059800 6.665200
						CHANNELS 3 Xrotation Yrotation Zrotation
						End Site
						{
							OFFSET 0.000000 12.319262 0.000000
						}
					}
				}
				JOINT LeftPantLeg
				{
					OFFSET 0.918482 -16.533964 -2.284700
					CHANNELS 3 Xrotation Yrotation Zrotation
					End Site
					{
						OFFSET 0.350399 24.744368 0.000000
					}
				}
			}
		}
		JOINT RightUpLeg
		{
			OFFSET -8.479700 -4.795502 -0.379100
			CHANNELS 3 Xrotation Yrotation Zrotation
			JOINT RightLeg
			{
				OFFSET -0.023144 -32.555092 0.112900
				CHANNELS 3 Xrotation Yrotation Zrotation
				JOINT RightFoot
				{
					OFFSET 0.023144 -32.638641 -3.012700
					CHANNELS 3 Xrotation Yrotation Zrotation
					JOINT RightToeBase
					{
						OFFSET -0.970200 -13.225400 11.864200
						CHANNELS 3 Xrotation Yrotation Zrotation
						End Site
						{
							OFFSET 0.000000 12.319244 0.000000
						}
					}
					JOINT RFootTongue
					{
						OFFSET -1.142200 -1.059800 6.665200
						CHANNELS 3 Xrotation Yrotation Zrotation
						End Site
						{
							OFFSET 0.000000 12.319243 0.000000
						}
					}
				}
				JOINT RightPantLeg
				{
					OFFSET -0.919482 -16.533978 -2.284800
					CHANNELS 3 Xrotation Yrotation Zrotation
					End Site
					{
						OFFSET -0.350400 24.744419 0.000000
					}
				}
			}
		}
	}
	JOINT Spine
	{
		OFFSET 0.000000 7.722000 1.166200
		CHANNELS 3 Xrotation Yrotation Zrotation
		JOINT Spine1
		{
			OFFSET 0.000000 12.024101 0.248800
			CHANNELS 3 Xrotation Yrotation Zrotation
			JOINT Spine2
			{
				OFFSET 0.000000 11.502998 -0.491200
				CHANNELS 3 Xrotation Yrotation Zrotation
				JOINT Neck
				{
					OFFSET 0.000000 18.430702 -3.123100
					CHANNELS 3 Xrotation Yrotation Zrotation
					JOINT Head
					{
						OFFSET 0.000000 9.051102 1.034000
						CHANNELS 3 Xrotation Yrotation Zrotation
						JOINT HairB
						{
							OFFSET 0.208400 24.786102 24.822300
							CHANNELS 3 Xrotation Yrotation Zrotation
							End Site
							{
								OFFSET 0.000000 32.263779 0.000000
							}
						}
						JOINT HairA
						{
							OFFSET -7.081100 24.428299 23.196600
							CHANNELS 3 Xrotation Yrotation Zrotation
							End Site
							{
								OFFSET 0.000000 32.263779 0.000000
							}
						}
						JOINT Hat
						{
							OFFSET 16.728800 15.048294 -15.439601
							CHANNELS 3 Xrotation Yrotation Zrotation
							End Site
							{
								OFFSET 0.000000 32.263779 0.000000
							}
						}
					}
				}
				JOINT LeftShoulder
				{
					OFFSET 6.197800 13.665199 -4.064700
					CHANNELS 3 Xrotation Yrotation Zrotation
					JOINT LeftArm
					{
						OFFSET 7.778100 -0.187103 -1.709300
						CHANNELS 3 Xrotation Yrotation Zrotation
						JOINT LeftForeArm
						{
							OFFSET 22.049376 0.000000 0.000000
							CHANNELS 3 Xrotation Yrotation Zrotation
							JOINT LeftHand
							{
								OFFSET 23.009392 0.000000 0.000000
								CHANNELS 3 Xrotation Yrotation Zrotation
								JOINT LeftHandThumb1
								{
									OFFSET 3.507191 -2.063065 3.133727
									CHANNELS 3 Xrotation Yrotation Zrotation
									JOINT LeftHandThumb2
									{
										OFFSET 3.101337 -1.790558 1.790558
										CHANNELS 3 Xrotation Yrotation Zrotation
										JOINT LeftHandThumb3
										{
											OFFSET 3.058640 -1.765907 1.765906
											CHANNELS 3 Xrotation Yrotation Zrotation
											End Site
											{
												OFFSET -0.415260 3.926476 -0.049563
											}
										}
									}
								}
								JOINT LeftHandIndex1
								{
									OFFSET 11.334419 -0.901459 3.706815
									CHANNELS 3 Xrotation Yrotation Zrotation
									JOINT LeftHandIndex2
									{
										OFFSET 3.283112 0.000000 0.000000
										CHANNELS 3 Xrotation Yrotation Zrotation
										JOINT LeftHandIndex3
										{
											OFFSET 3.323853 0.000000 0.000000
											CHANNELS 3 Xrotation Yrotation Zrotation
											End Site
											{
												OFFSET -1.135597 3.097809 0.402452
											}
										}
									}
								}
								JOINT LeftHandMiddle1
								{
									OFFSET 11.335861 0.000000 0.000000
									CHANNELS 3 Xrotation Yrotation Zrotation
									JOINT LeftHandMiddle2
									{
										OFFSET 3.410492 0.000000 0.000000
										CHANNELS 3 Xrotation Yrotation Zrotation
										JOINT LeftHandMiddle3
										{
											OFFSET 3.312172 0.000000 0.000000
											CHANNELS 3 Xrotation Yrotation Zrotation
											End Site
											{
												OFFSET -1.150200 3.080154 0.400270
											}
										}
									}
								}
								JOINT LeftHandRing1
								{
									OFFSET 11.514786 -0.013176 -3.003090
									CHANNELS 3 Xrotation Yrotation Zrotation
									JOINT LeftHandRing2
									{
										OFFSET 3.053307 0.000000 0.000000
										CHANNELS 3 Xrotation Yrotation Zrotation
										JOINT LeftHandRing3
										{
											OFFSET 3.295807 0.000000 0.000000
											CHANNELS 3 Xrotation Yrotation Zrotation
											End Site
											{
												OFFSET -1.281006 3.013344 0.375733
											}
										}
									}
								}
								JOINT LeftHandPinky1
								{
									OFFSET 10.518692 -0.960396 -5.730441
									CHANNELS 3 Xrotation Yrotation Zrotation
									JOINT LeftHandPinky2
									{
										OFFSET 2.861649 0.000000 0.000000
										CHANNELS 3 Xrotation Yrotation Zrotation
										JOINT LeftHandPinky3
										{
											OFFSET 2.863380 0.000000 0.000000
											CHANNELS 3 Xrotation Yrotation Zrotation
											End Site
											{
												OFFSET -0.843597 2.711159 0.369971
											}
										}
									}
								}
							}
							JOINT LSleeve
							{
								OFFSET 6.676277 -0.344902 -1.011730
								CHANNELS 3 Xrotation Yrotation Zrotation
								End Site
								{
									OFFSET 0.000000 14.885353 0.000000
								}
							}
						}
					}
				}
				JOINT RightShoulder
				{
					OFFSET -6.197800 13.665199 -4.064700
					CHANNELS 3 Xrotation Yrotation Zrotation
					JOINT RightArm
					{
						OFFSET -7.778100 -0.187103 -1.709300
						CHANNELS 3 Xrotation Yrotation Zrotation
						JOINT RightForeArm
						{
							OFFSET -22.049376 0.000000 0.000000
							CHANNELS 3 Xrotation Yrotation Zrotation
							JOINT RightHand
							{
								OFFSET -23.009392 0.000000 0.000000
								CHANNELS 3 Xrotation Yrotation Zrotation
								JOINT RightHandThumb1
								{
									OFFSET -3.507191 -2.063065 3.133727
									CHANNELS 3 Xrotation Yrotation Zrotation
									JOINT RightHandThumb2
									{
										OFFSET -3.101337 -1.790558 1.790558
										CHANNELS 3 Xrotation Yrotation Zrotation
										JOINT RightHandThumb3
										{
											OFFSET -3.058640 -1.765907 1.765906
											CHANNELS 3 Xrotation Yrotation Zrotation
											End Site
											{
												OFFSET 0.415260 3.926476 -0.049563
											}
										}
									}
								}
								JOINT RightHandIndex1
								{
									OFFSET -11.334419 -0.901459 3.706815
									CHANNELS 3 Xrotation Yrotation Zrotation
									JOINT RightHandIndex2
									{
										OFFSET -3.283112 0.000000 0.000000
										CHANNELS 3 Xrotation Yrotation Zrotation
										JOINT RightHandIndex3
										{
											OFFSET -3.323853 0.000000 0.000000
											CHANNELS 3 Xrotation Yrotation Zrotation
											End Site
											{
												OFFSET 1.135597 3.097809 0.402452
											}
										}
									}
								}
								JOINT RightHandMiddle1
								{
									OFFSET -11.335861 0.000000 0.000000
									CHANNELS 3 Xrotation Yrotation Zrotation
									JOINT RightHandMiddle2
									{
										OFFSET -3.410492 0.000000 0.000000
										CHANNELS 3 Xrotation Yrotation Zrotation
										JOINT RightHandMiddle3
										{
											OFFSET -3.312172 0.000000 0.000000
											CHANNELS 3 Xrotation Yrotation Zrotation
											End Site
											{
												OFFSET 1.150200 3.080154 0.400270
											}
										}
									}
								}
								JOINT RightHandRing1
								{
									OFFSET -11.514786 -0.013176 -3.003090
									CHANNELS 3 Xrotation Yrotation Zrotation
									JOINT RightHandRing2
									{
										OFFSET -3.053307 0.000000 0.000000
										CHANNELS 3 Xrotation Yrotation Zrotation
										JOINT RightHandRing3
										{
											OFFSET -3.295807 0.000000 0.000000
											CHANNELS 3 Xrotation Yrotation Zrotation
											End Site
											{
												OFFSET 1.281006 3.013344 0.375733
											}
										}
									}
								}
								JOINT RightHandPinky1
								{
									OFFSET -10.518692 -0.960396 -5.730441
									CHANNELS 3 Xrotation Yrotation Zrotation
									JOINT RightHandPinky2
									{
										OFFSET -2.861649 0.000000 0.000000
										CHANNELS 3 Xrotation Yrotation Zrotation
										JOINT RightHandPinky3
										{
											OFFSET -2.863380 0.000000 0.000000
											CHANNELS 3 Xrotation Yrotation Zrotation
											End Site
											{
												OFFSET 0.843597 2.711159 0.369971
											}
										}
									}
								}
							}
							JOINT RSleeve
							{
								OFFSET -6.676277 -0.344902 -1.011730
								CHANNELS 3 Xrotation Yrotation Zrotation
								End Site
								{
									OFFSET 0.000000 14.885353 0.000000
								}
							}
						}
					}
				}
				JOINT Backpack
				{
					OFFSET 0.000000 -2.471497 36.677502
					CHANNELS 3 Xrotation Yrotation Zrotation
					End Site
					{
						OFFSET 0.000000 20.427315 0.000000
					}
				}
				JOINT Hood
				{
					OFFSET 0.000000 18.754097 -10.431000
					CHANNELS 3 Xrotation Yrotation Zrotation
					JOINT Hood1
					{
						OFFSET 0.000000 -5.011002 -7.685901
						CHANNELS 3 Xrotation Yrotation Zrotation
						End Site
						{
							OFFSET 0.000000 9.175140 0.000000
						}
					}
				}
				JOINT LHoodieString
				{
					OFFSET 5.250500 16.397697 3.089900
					CHANNELS 3 Xrotation Yrotation Zrotation
					JOINT LHoodieString1
					{
						OFFSET 0.257700 -6.364304 3.694600
						CHANNELS 3 Xrotation Yrotation Zrotation
						JOINT LHoodieString2
						{
							OFFSET 0.000000 -9.643799 2.679100
							CHANNELS 3 Xrotation Yrotation Zrotation
							End Site
							{
								OFFSET 0.000000 10.009018 0.000000
							}
						}
					}
				}
				JOINT RHoodieString
				{
					OFFSET -5.250500 16.397697 3.089900
					CHANNELS 3 Xrotation Yrotation Zrotation
					JOINT RHoodieString1
					{
						OFFSET -0.257700 -6.364304 3.694600
						CHANNELS 3 Xrotation Yrotation Zrotation
						JOINT RHoodieString2
						{
							OFFSET 0.000000 -9.643799 2.679100
							CHANNELS 3 Xrotation Yrotation Zrotation
							End Site
							{
								OFFSET 0.000000 10.009018 0.000000
							}
						}
					}
				}
			}
			JOINT LBackpack_Strap
			{
				OFFSET 15.223200 -7.719803 -6.610900
				CHANNELS 3 Xrotation Yrotation Zrotation
				End Site
				{
					OFFSET 0.000000 16.040596 0.000000
				}
			}
			JOINT RBackpack_Strap
			{
				OFFSET -15.223000 -7.719803 -6.610900
				CHANNELS 3 Xrotation Yrotation Zrotation
				End Site
				{
					OFFSET 0.000000 16.040596 0.000000
				}
			}
		}
	}
	JOINT BoyFacialAnim_Joint
	{
		OFFSET 1.000000 -82.208099 -1.550900
		CHANNELS 3 Xrotation Yrotation Zrotation
		End Site
		{
			OFFSET 0.000000 30.012791 0.000000
		}
	}
}
MOTION
Frames: 4
Frame Time: 0.016667
0.528767 65.204124 0.670875 -0.009789 -7.772825 -16.480864 -0.000000 -0.000001 -0.000000 -63.421537 10.487770 5.869055 105.558682 9.843536 0.471318 6.954052 0.441983 18.944348 -0.000001 0.000000 -0.000000 -0.000001 0.000000 -0.000000 0.000001 0.000000 0.000000 -31.483470 3.766612 -1.504990 66.779511 9.509706 0.628867 -37.927050 -1.300278 9.431923 0.000000 -0.000000 -0.000000 0.000000 -0.000000 -0.000000 -0.000001 -0.000001 -0.000001 5.593479 1.198785 0.367762 4.651098 0.654909 1.633864 4.657236 0.491970 1.673781 0.396502 1.761071 0.948531 -15.762642 26.254650 5.119164 -0.000000 -0.000001 0.000001 -0.000000 -0.000001 0.000001 -0.000000 -0.000001 0.000001 0.472290 0.823559 -6.563487 41.287049 -17.715629 -58.148713 0.000025 -58.979838 0.000031 -18.820677 -33.533493 26.792962 5.358061 -0.141365 9.666165 3.545769 27.155809 3.560558 0.000001 -0.000000 -0.000001 -1.578835 0.825942 -19.703501 0.405084 2.871000 -21.069201 -0.000002 0.000003 0.000002 0.409503 7.162243 -25.647934 0.416491 2.993237 -22.185344 -0.000000 -0.000001 -0.000002 2.386884 10.570843 -32.882358 0.471662 2.115278 -18.421983 -0.000001 -0.000001 -0.000000 2.967954 13.388244 -36.938916 0.139970 1.667046 -18.441900 0.000000 0.000001 -0.000002 0.000003 -0.000001 -0.000001 0.625966 0.265421 11.021711 -6.297846 23.802332 54.826919 0.000258 96.646951 -0.000261 -19.103276 24.520606 -3.410969 0.789351 -8.211548 -4.825405 0.020122 -13.361231 -9.371014 -0.000000 -0.000000 0.000001 -1.070483 -2.247358 17.231252 0.405441 -2.871960 21.079321 -0.000001 0.000001 0.000005 0.438990 -7.256203 26.595145 0.417436 -2.995673 22.211563 -0.000000 -0.000000 0.000003 2.698267 -11.184215 32.166096 0.472407 -2.116951 18.440370 -0.000003 -0.000000 0.000002 4.305397 -16.260297 34.920992 0.139796 -1.666349 18.434701 0.000002 -0.000001 -0.000002 0.000001 0.000000 0.000003 0.000002 -0.000000 0.000001 0.000002 -0.000000 0.000001 0.000002 -0.000000 0.000001 0.000002 -0.000000 0.000001 0.000002 -0.000000 0.000001 0.000000 0.000000 -0.000000 0.000002 -0.000000 0.000001 0.000002 -0.000000 0.000001 0.000000 0.000000 -0.000000 0.000001 0.000000 -0.000000 0.000001 0.000000 -0.000000 -0.000000 -0.000001 -0.000000 
1.083992 65.395836 7.260615 -0.128535 -6.257978 -16.052927 -0.000000 0.000000 0.000001 -68.578583 9.569232 4.203214 99.818611 9.566232 0.556155 4.959264 1.318584 18.094076 0.000000 -0.000000 -0.000000 0.000000 -0.000000 -0.000000 0.000003 -0.000000 -0.000001 -23.159498 2.559185 -4.611195 64.229883 7.816743 0.820806 -39.927373 0.980801 11.707777 0.000000 0.000000 0.000001 0.000000 0.000000 0.000001 0.000003 0.000000 -0.000000 5.527253 3.108807 0.419997 4.641767 1.992368 1.349660 4.668626 1.846769 1.438066 0.764414 1.195515 1.133495 -15.802201 22.159422 4.754595 0.000000 -0.000001 0.000001 0.000000 -0.000001 0.000001 0.000000 -0.000001 0.000001 0.417700 0.977522 -5.230731 51.088101 -19.833368 -55.708584 0.000006 -63.791563 0.000012 -19.494453 -33.921383 26.202696 5.358061 -0.141367 9.666162 3.545769 27.155813 3.560558 0.000000 -0.000000 -0.000001 -1.578834 0.825940 -19.703503 0.405084 2.870998 -21.069199 -0.000002 0.000001 -0.000003 0.409504 7.162242 -25.647936 0.416492 2.993233 -22.185342 0.000001 -0.000001 -0.000000 2.386888 10.570841 -32.882361 0.471660 2.115284 -18.421982 -0.000003 0.000001 0.000001 2.967955 13.388242 -36.938916 0.139967 1.667052 -18.441903 0.000000 0.000001 -0.000002 -0.000000 0.000000 -0.000001 0.552485 2.485358 8.941590 -15.548132 21.166664 54.791521 0.000337 101.079116 -0.000310 -18.201850 23.757835 -3.922287 0.789350 -8.211550 -4.825407 0.020118 -13.361232 -9.371014 -0.000001 -0.000002 0.000001 -1.070486 -2.247358 17.231256 0.405441 -2.871961 21.079318 -0.000000 -0.000003 0.000007 0.438989 -7.256204 26.595148 0.417430 -2.995676 22.211563 0.000005 0.000002 0.000000 2.698265 -11.184219 32.166089 0.472405 -2.116952 18.440370 -0.000003 -0.000001 0.000002 4.305397 -16.260298 34.920992 0.139794 -1.666353 18.434704 0.000000 -0.000000 0.000002 0.000002 -0.000000 -0.000002 -0.000001 0.000000 0.000001 -0.000001 0.000000 0.000001 -0.000001 0.000000 0.000001 -0.000001 0.000000 0.000001 -0.000001 0.000000 0.000001 -0.000003 -0.000000 0.000000 -0.000001 0.000000 0.000001 -0.000001 0.000000 0.000001 -0.000003 -0.000000 0.000000 -0.000001 0.000000 0.000000 -0.000001 0.000000 0.000000 -0.000000 0.000000 0.000001 
1.734476 65.746628 14.043087 0.075015 -4.129418 -15.326330 -0.000000 -0.000000 -0.000000 -71.848843 8.811146 1.515591 91.871748 9.582369 0.660150 1.970747 2.517279 17.266798 -0.000001 -0.000000 -0.000000 -0.000001 -0.000000 0.000000 -0.000001 -0.000000 -0.000001 -14.925416 1.293929 -7.502042 60.276092 6.279456 0.962176 -38.012260 2.564943 15.033678 0.000000 0.000000 -0.000000 0.000000 0.000000 -0.000000 -0.000000 0.000000 -0.000001 5.214158 5.123550 0.038419 4.448705 3.149790 1.037701 4.488397 3.024020 1.166607 1.152614 0.559720 1.495090 -15.349721 17.467138 4.353245 -0.000000 0.000000 0.000000 -0.000000 0.000000 0.000000 -0.000000 0.000000 0.000000 0.360100 0.455521 -3.526981 59.840401 -20.330464 -53.492928 -0.000001 -68.582162 -0.000026 -20.234674 -34.438026 25.571381 5.358062 -0.141371 9.666165 3.545768 27.155808 3.560555 0.000000 0.000000 0.000003 -1.578835 0.825936 -19.703501 0.405084 2.870997 -21.069201 -0.000003 0.000000 -0.000002 0.409503 7.162240 -25.647931 0.416491 2.993237 -22.185341 0.000001 -0.000002 -0.000000 2.386886 10.570837 -32.882358 0.471662 2.115280 -18.421990 -0.000004 0.000000 -0.000000 2.967955 13.388237 -36.938913 0.139967 1.667049 -18.441897 -0.000002 -0.000002 -0.000002 -0.000000 -0.000000 -0.000001 0.572463 3.368494 7.197856 -23.014548 20.036251 54.517211 -0.000060 105.501766 0.000038 -15.360228 23.077298 -5.389247 0.789353 -8.211552 -4.825404 0.020119 -13.361232 -9.371014 -0.000000 -0.000002 -0.000001 -1.070485 -2.247358 17.231251 0.405449 -2.871961 21.079318 -0.000001 -0.000000 0.000002 0.438990 -7.256208 26.595152 0.417434 -2.995676 22.211563 0.000001 0.000000 -0.000002 2.698265 -11.184223 32.166096 0.472396 -2.116952 18.440372 -0.000003 -0.000001 -0.000001 4.305397 -16.260302 34.920992 0.139796 -1.666354 18.434706 0.000000 0.000000 0.000002 0.000002 -0.000000 0.000002 -0.000001 0.000000 -0.000000 -0.000001 0.000000 -0.000000 -0.000001 0.000000 -0.000000 -0.000001 0.000000 -0.000000 -0.000001 0.000000 -0.000000 -0.000001 0.000000 -0.000000 -0.000001 0.000000 -0.000000 -0.000001 0.000000 -0.000000 -0.000001 0.000000 -0.000000 -0.000000 -0.000000 -0.000001 -0.000000 -0.000000 -0.000001 -0.000000 -0.000000 -0.000000 
2.445408 66.166138 20.873381 0.389800 -1.792033 -14.587409 0.000000 -0.000000 0.000001 -73.239456 8.031155 -1.607916 82.070556 9.833055 0.761226 -1.833423 3.659643 16.599139 -0.000001 0.000000 0.000000 -0.000001 0.000000 0.000000 0.000000 -0.000000 0.000003 -7.823167 0.151192 -9.841212 55.930059 5.375280 1.034937 -30.706574 4.149919 18.913883 0.000001 0.000000 0.000000 0.000001 0.000000 0.000000 0.000001 -0.000001 -0.000001 4.815713 7.150686 -0.506279 4.164444 4.140926 0.752276 4.210766 4.034414 0.914159 1.524936 -0.077951 1.938764 -14.628452 12.752695 3.958219 -0.000000 -0.000001 0.000000 -0.000000 -0.000001 0.000000 -0.000000 -0.000001 0.000000 0.346230 -0.354003 -1.729432 67.332490 -19.844167 -52.035147 0.000021 -73.056277 0.000003 -21.063503 -34.966566 24.978902 5.358061 -0.141370 9.666165 3.545769 27.155813 3.560559 -0.000000 -0.000000 0.000001 -1.578834 0.825937 -19.703501 0.405085 2.870996 -21.069199 -0.000003 0.000002 -0.000003 0.409504 7.162237 -25.647934 0.416492 2.993238 -22.185342 0.000002 -0.000000 0.000000 2.386887 10.570838 -32.882361 0.471660 2.115283 -18.421980 -0.000003 0.000001 -0.000002 2.967954 13.388238 -36.938916 0.139968 1.667049 -18.441902 -0.000001 0.000002 0.000002 0.000002 -0.000000 -0.000002 0.591748 3.455531 5.803168 -28.885850 20.146529 54.610118 0.000048 109.781310 -0.000043 -11.356455 22.070677 -7.051876 0.789348 -8.211551 -4.825404 0.020121 -13.361231 -9.371014 -0.000001 0.000002 0.000001 -1.070484 -2.247357 17.231252 0.405443 -2.871961 21.079316 -0.000003 -0.000001 0.000003 0.438990 -7.256205 26.595152 0.417439 -2.995673 22.211565 -0.000001 0.000000 -0.000000 2.698265 -11.184221 32.166096 0.472406 -2.116948 18.440368 -0.000002 -0.000002 0.000002 4.305397 -16.260293 34.920992 0.139795 -1.666353 18.434704 -0.000002 -0.000001 0.000002 -0.000000 0.000001 0.000002 -0.000000 0.000001 -0.000000 -0.000000 0.000001 -0.000000 -0.000000 0.000001 -0.000000 -0.000000 0.000001 -0.000000 -0.000000 0.000001 0.000001 -0.000000 0.000001 0.000001 -0.000000 0.000001 -0.000000 -0.000000 0.000001 0.000001 -0.000000 0.000001 0.000001 0.000002 0.000000 -0.000001 0.000002 0.000000 -0.000001 0.000000 -0.000000 0.000001 
